<svg xmlns="http://www.w3.org/2000/svg"  viewBox="0 0 50 50" width="50px" height="50px"><path d="M 21 4 C 19.79 4 18.700469 4.7296094 18.230469 5.8496094 L 16.099609 11 L 38 11 C 38.55 11 39 11.45 39 12 L 39 35.570312 L 44.189453 32.179688 C 45.319453 31.449688 46 30.180078 46 28.830078 L 46 7 C 46 5.34 44.66 4 43 4 L 21 4 z M 6 8 C 4.9 8 4 8.9 4 10 L 4 20 L 5.6796875 30.939453 L 11 18.089844 L 11 12 C 11 11.45 11.45 11 12 11 L 13.929688 11 L 15.169922 8.0097656 C 15.119922 7.9997656 15.06 8 15 8 L 6 8 z M 13 13 L 13 13.25 L 13 37 L 37 37 L 37 13 L 13.099609 13 L 13 13 z M 15 15 L 21 15 L 21 17 L 19 17 L 19 23 L 21 23 L 21 25 L 15 25 L 15 23 L 17 23 L 17 17 L 15 17 L 15 15 z M 25 15 L 27 15 L 27 22 C 27 23.657 25.657 25 24 25 L 22 25 L 22 23 L 24 23 C 24.552 23 25 22.552 25 22 L 25 15 z M 11 23.330078 L 6.2695312 34.759766 L 7.609375 43.460938 C 7.829375 44.920938 9.0903125 46 10.570312 46 L 21.810547 46 C 22.590547 46 23.35 45.769609 24 45.349609 L 33.730469 39 L 12 39 C 11.45 39 11 38.55 11 38 L 11 23.330078 z M 15 33 L 26 33 L 26 35 L 15 35 L 15 33 z M 43 35.339844 L 39 37.949219 L 39 38 C 39 38.55 38.55 39 38 39 L 37.400391 39 L 31.410156 42.910156 C 31.600156 42.970156 31.8 43 32 43 L 41 43 C 42.1 43 43 42.1 43 41 L 43 35.339844 z"/></svg>